<svg xmlns="http://www.w3.org/2000/svg" version="1.1" xmlns:xlink="http://www.w3.org/1999/xlink" xmlns:svgjs="http://svgjs.dev/svgjs" width="1500" height="1500" viewBox="0 0 1500 1500"><rect width="1500" height="1500" fill="#ffffff"></rect><g transform="matrix(0.6666666666666666,0,0,0.6666666666666666,249.39393939393938,699.6050135216673)"><svg viewBox="0 0 396 40" data-background-color="#ffffff" preserveAspectRatio="xMidYMid meet" height="151" width="1500" xmlns="http://www.w3.org/2000/svg" xmlns:xlink="http://www.w3.org/1999/xlink"><g id="tight-bounds" transform="matrix(1,0,0,1,0.2400000000000091,0.02449793841032033)"><svg viewBox="0 0 395.52 39.95100412317934" height="39.95100412317934" width="395.52"><g><svg viewBox="0 0 493.8008707196152 49.87823781894441" height="39.95100412317934" width="395.52"><g><rect width="4.475692498362027" height="49.87823781894441" x="82.08870571245205" y="0" fill="#ffc107" opacity="1" stroke-width="0" stroke="transparent" fill-opacity="1" class="rect-qz-0" data-fill-palette-color="primary" rx="1%" id="qz-0" data-palette-color="#ffc107"></rect></g><g transform="matrix(1,0,0,1,98.2808707196152,0.12407521845508285)"><svg viewBox="0 0 395.52 49.63008738203425" height="49.63008738203425" width="395.52"><g id="textblocktransform"><svg viewBox="0 0 395.52 49.63008738203425" height="49.63008738203425" width="395.52" id="textblock"><g><svg viewBox="0 0 395.52 49.63008738203425" height="49.63008738203425" width="395.52"><g transform="matrix(1,0,0,1,0,0)"><svg width="395.52" viewBox="3 -35.4 286.08 35.9" height="49.63008738203425" data-palette-color="#ffc107"><path d="M13.6 0L4 0 4-27.35 3-32.35 4.05-35.35 13.6-35.35 23.4-16.35 24.4-16.35 32.5-35.35 42.45-35.35 42.95-32.35 42.45-27.55 42.45 0 33.4 0 33.55-4.25 33.55-18.2 33-18.2 31-13.4 26.5-5 20.5-5 13.6-18.2 13.1-18.2 13.1-14.15 13.6 0ZM55.45 0.5L55.45 0.5Q53.3 0.5 51.47-0.13 49.65-0.75 48.55-2.3 47.45-3.85 47.45-6.6L47.45-6.6Q47.45-9.1 48.7-10.75 49.95-12.4 52.1-13.2 54.25-14 56.95-14L56.95-14Q59.55-14 60.85-13.43 62.15-12.85 63.1-12.25L63.1-12.25 63.45-12.55Q63.45-14.05 63.2-15.05 62.95-16.05 62.05-16.57 61.15-17.1 59.25-17.1L59.25-17.1Q57.4-17.1 55.32-16.78 53.25-16.45 51.52-15.98 49.8-15.5 48.95-15.05L48.95-15.05 48.95-22.55Q50.5-23.1 53.37-23.58 56.25-24.05 60.45-24.05L60.45-24.05Q64.95-24.05 67.57-22.93 70.2-21.8 71.35-19.68 72.5-17.55 72.5-14.6L72.5-14.6 72.5-7.95 73.5-2.9 72.5 0.05 63.95 0.05 63.95-2.4 63.45-2.65Q63.05-2.25 62.05-1.5 61.05-0.75 59.4-0.13 57.75 0.5 55.45 0.5ZM59.7-6.05L59.7-6.05Q61.05-6.05 62.02-6.3 63-6.55 63.45-6.75L63.45-6.75 63.45-7.7Q63.45-8.35 62.52-8.95 61.6-9.55 59.65-9.55L59.65-9.55Q56.95-9.55 56.95-7.65L56.95-7.65Q56.95-6.85 57.55-6.45 58.15-6.05 59.7-6.05ZM89 0.5L89 0.5Q85.55 0.5 82.77-0.65 80-1.8 78.37-4.5 76.75-7.2 76.75-11.8L76.75-11.8Q76.75-16.45 78.5-19.13 80.25-21.8 83.05-22.95 85.84-24.1 89-24.1L89-24.1Q91.75-24.1 93.72-23.9 95.7-23.7 96.34-23.55L96.34-23.55 100.25-19.15 96.25-13.7 90.5-17.1Q86.2-17.1 86.2-11.8L86.2-11.8Q86.2-9.05 87.5-7.78 88.8-6.5 91.5-6.5L91.5-6.5Q94.2-6.5 96.34-7.25 98.5-8 99.7-8.65L99.7-8.65 99.7-1.45Q98.15-0.65 95.62-0.08 93.09 0.5 89 0.5ZM114.24 0L105.24 0 105.24-27.4 104.24-32.4 105.24-35.4 114.24-35.4 114.24-27.3 113.74-21.75 114.24-21.5Q114.84-22.4 116.47-23.28 118.09-24.15 120.74-24.15L120.74-24.15Q125.24-24.15 127.49-21.6 129.74-19.05 129.74-14.45L129.74-14.45 129.74-7.95 130.79-3.05 129.74 0 120.74 0 120.74-13.15Q120.74-15.05 119.92-16.07 119.09-17.1 117.34-17.1L117.34-17.1 114.24-15.65 114.24 0ZM151.19 0.5L151.19 0.5Q148.79 0.5 147.37 0.08 145.94-0.35 145.29-0.78 144.64-1.2 144.64-1.2L144.64-1.2 144.64 0.05 135.64 0.05 135.64-27.35 134.59-32.35 135.64-35.35 144.64-35.35 144.64-27.3 144.14-21.65 144.64-21.4Q145.64-22.35 147.12-23.23 148.59-24.1 151.19-24.1L151.19-24.1Q155.64-24.1 158.17-21.25 160.69-18.4 160.69-12.25L160.69-12.25Q160.69-7.65 159.42-4.83 158.14-2 155.99-0.75 153.84 0.5 151.19 0.5ZM146.94-6.35L146.94-6.35Q148.89-6.35 150.04-7.73 151.19-9.1 151.19-11.85L151.19-11.85Q151.19-14.55 150.24-15.78 149.29-17 147.44-17L147.44-17 144.64-15.95 144.64-7Q144.64-7 145.16-6.68 145.69-6.35 146.94-6.35ZM171.44 0.5L171.44 0.5Q168.44 0.5 166.81-0.65 165.19-1.8 164.56-3.98 163.94-6.15 163.94-9.2L163.94-9.2 163.94-23.65 172.94-23.65 172.94-10.5Q172.94-8.65 173.66-7.6 174.39-6.55 175.84-6.55L175.84-6.55Q177.19-6.55 178.31-7.7 179.44-8.85 179.44-11.05L179.44-11.05 179.44-23.65 188.44-23.65 188.44-8.05 189.49-3.05 188.44 0 179.99 0 179.99-2.45 179.49-2.7Q178.84-2.05 177.61-1.3 176.39-0.55 174.81-0.03 173.24 0.5 171.44 0.5ZM204.03 0.5L204.03 0.5Q200.38 0.5 197.59-0.25 194.78-1 193.23-1.8L193.23-1.8 193.23-8.75Q195.28-7.85 197.46-7.35 199.63-6.85 201.38-6.68 203.13-6.5 203.88-6.5L203.88-6.5Q204.73-6.5 205.09-6.78 205.44-7.05 205.44-7.45L205.44-7.45Q205.44-8 204.53-8.38 203.63-8.75 201.13-9.35L201.13-9.35Q199.09-9.85 197.16-10.63 195.23-11.4 194.01-12.8 192.78-14.2 192.78-16.55L192.78-16.55Q192.78-19.45 194.13-21.1 195.48-22.75 197.98-23.43 200.48-24.1 203.84-24.1L203.84-24.1Q205.73-24.1 207.38-23.9 209.03-23.7 209.73-23.6L209.73-23.6 214.38-20.6 212.13-15.25 203.38-17.15Q201.78-17.15 201.78-16.1L201.78-16.1Q201.78-15 204.09-14.45L204.09-14.45Q205.88-14.05 207.78-13.58 209.69-13.1 211.26-12.35 212.84-11.6 213.81-10.35 214.78-9.1 214.78-7.05L214.78-7.05Q214.78-3.25 212.06-1.38 209.34 0.5 204.03 0.5ZM227.93 0.5L227.93 0.5Q224.53 0.5 222.48-1.5 220.43-3.5 220.43-6.55L220.43-6.55 220.43-17.45 216.78-17.45 216.78-22.2 219.93-24.65 223.48-30.85 229.38-30.85 229.38-23.6 236.38-23.6 236.38-17.1 229.38-17.1 229.38-6.4 236.38-6.45 236.38-1Q236.38-1 235.21-0.63 234.03-0.25 232.13 0.13 230.23 0.5 227.93 0.5ZM252.38 0.5L252.38 0.5Q248.53 0.5 245.53-0.65 242.53-1.8 240.83-4.5 239.13-7.2 239.13-11.8L239.13-11.8Q239.13-15.1 240.25-17.45 241.38-19.8 243.28-21.28 245.18-22.75 247.53-23.43 249.88-24.1 252.38-24.1L252.38-24.1Q256.68-24.1 259-23.25 261.33-22.4 262.08-21.9L262.08-21.9 264.58-13.95 263.58-10.85 248.08-10.85Q248.43-9 249.93-7.75 251.43-6.5 254.88-6.5L254.88-6.5Q257.58-6.5 259.53-7.1 261.48-7.7 262.58-8.15L262.58-8.15 262.58-1.45Q261.08-0.65 258.25-0.08 255.43 0.5 252.38 0.5ZM248.13-14.05L248.13-14.05 255.03-15.05 254.58-17.2Q254.23-17.4 253.56-17.5 252.88-17.6 252.38-17.6L252.38-17.6Q250.98-17.6 250.06-17 249.13-16.4 248.66-15.58 248.18-14.75 248.13-14.05ZM277.73 0L268.83 0 268.83-15.65 267.78-20.65 268.83-23.65 275.63-23.65 276.63-22.5Q276.63-22.5 277.33-22.93 278.03-23.35 279.3-23.75 280.58-24.15 282.28-24.15L282.28-24.15Q283.28-24.15 284.28-24 285.28-23.85 285.83-23.6L285.83-23.6 289.08-20.85 285.83-14.45 279.23-17.2 277.73-16.7 277.73 0Z" opacity="1" transform="matrix(1,0,0,1,0,0)" fill="#ffc107" class="wordmark-text-0" data-fill-palette-color="primary" id="text-0"></path></svg></g></svg></g></svg></g></svg></g><g transform="matrix(1,0,0,1,0,0.12407521845508285)"><svg viewBox="0 0 70.37223320365094 49.63008738203425" height="49.63008738203425" width="70.37223320365094"><g><svg xmlns="http://www.w3.org/2000/svg" xmlns:xlink="http://www.w3.org/1999/xlink" version="1.1" x="0" y="0" viewBox="0.5000000000000002 10.9 71.03853870664699 50.1" enable-background="new 0 0 72 72" xml:space="preserve" height="49.63008738203425" width="70.37223320365094" class="icon-icon-0" data-fill-palette-color="accent" id="icon-0"><g fill="#ffc107" data-fill-palette-color="accent"><path fill="#ffc107" d="M70.2 10.9H22.8c-0.6 0-1.1 0.4-1.3 1L8.8 59.4c-0.2 0.8 0.4 1.6 1.3 1.6h47.4c0.6 0 1.1-0.4 1.3-1l12.7-47.5C71.7 11.7 71.1 10.9 70.2 10.9zM19.6 53.1l-1 3.7c-0.2 0.6-0.7 1-1.3 1h-3.6c-0.9 0-1.5-0.8-1.3-1.6l1-3.7c0.2-0.6 0.7-1 1.3-1h3.6C19.2 51.4 19.9 52.2 19.6 53.1zM35.2 18.9l1-3.7c0.2-0.6 0.7-1 1.3-1h3.6c0.9 0 1.5 0.8 1.3 1.6l-1 3.7c-0.2 0.6-0.7 1-1.3 1h-3.6C35.6 20.6 34.9 19.8 35.2 18.9zM22.4 18.9l1-3.7c0.2-0.6 0.7-1 1.3-1h3.6c0.9 0 1.5 0.8 1.3 1.6l-1 3.7c-0.2 0.6-0.7 1-1.3 1h-3.6C22.8 20.6 22.2 19.8 22.4 18.9zM32.4 53.1l-1 3.7c-0.2 0.6-0.7 1-1.3 1h-3.6c-0.9 0-1.5-0.8-1.3-1.6l1-3.7c0.2-0.6 0.7-1 1.3-1h3.6C32 51.4 32.6 52.2 32.4 53.1zM45.1 53.1l-1 3.7c-0.2 0.6-0.7 1-1.3 1h-3.6c-0.9 0-1.5-0.8-1.3-1.6l1-3.7c0.2-0.6 0.7-1 1.3-1h3.6C44.7 51.4 45.3 52.2 45.1 53.1zM45.6 37.2l-11.7 9.3c-1.4 1.1-3 0.3-2.6-1.2l5-18.5c0.4-1.5 2.5-2.3 3.2-1.2l6.8 9.3C46.8 35.5 46.5 36.5 45.6 37.2zM47.9 18.9l1-3.7c0.2-0.6 0.7-1 1.3-1h3.6c0.9 0 1.5 0.8 1.3 1.6l-1 3.7c-0.2 0.6-0.7 1-1.3 1h-3.6C48.3 20.6 47.6 19.8 47.9 18.9zM57.8 53.1l-1 3.7c-0.2 0.6-0.7 1-1.3 1h-3.6c-0.9 0-1.5-0.8-1.3-1.6l1-3.7c0.2-0.6 0.7-1 1.3-1h3.6C57.4 51.4 58 52.2 57.8 53.1zM67.8 15.9l-1 3.7c-0.2 0.6-0.7 1-1.3 1h-3.6c-0.9 0-1.5-0.8-1.3-1.6l1-3.7c0.2-0.6 0.7-1 1.3-1h3.6C67.4 14.2 68 15 67.8 15.9z" data-fill-palette-color="accent"></path><path fill="#ffc107" d="M3.2 24.1h9.4c1 0 1.7-0.8 1.7-1.7 0-1-0.8-1.7-1.7-1.7H3.2c-1 0-1.7 0.8-1.7 1.7C1.5 23.4 2.3 24.1 3.2 24.1z" data-fill-palette-color="accent"></path><path fill="#ffc107" d="M2.2 33.2h7.4c1 0 1.7-0.8 1.7-1.7 0-1-0.8-1.7-1.7-1.7H2.2c-1 0-1.7 0.8-1.7 1.7C0.5 32.4 1.3 33.2 2.2 33.2z" data-fill-palette-color="accent"></path><path fill="#ffc107" d="M8.4 38.8H3.2c-1 0-1.7 0.8-1.7 1.7 0 1 0.8 1.7 1.7 1.7h5.2c1 0 1.7-0.8 1.7-1.7C10.1 39.6 9.3 38.8 8.4 38.8z" data-fill-palette-color="accent"></path><path fill="#ffc107" d="M5 47.9H2.2c-1 0-1.7 0.8-1.7 1.7 0 1 0.8 1.7 1.7 1.7H5c1 0 1.7-0.8 1.7-1.7C6.7 48.6 6 47.9 5 47.9z" data-fill-palette-color="accent"></path></g></svg></g></svg></g></svg></g><defs></defs></svg><rect width="395.52" height="39.95100412317934" fill="none" stroke="none" visibility="hidden"></rect></g></svg></g></svg>